<svg xmlns="http://www.w3.org/2000/svg" version="1.1" xmlns:xlink="http://www.w3.org/1999/xlink" xmlns:svgjs="http://svgjs.com/svgjs" width="76" height="75"><svg width="76" height="75" viewBox="0 0 76 75" fill="none" xmlns="http://www.w3.org/2000/svg">
<path d="M42.752 70.5301V74.3701H0V0.130127H3.84V70.5301H42.752Z" fill="#B4637A"></path>
<path d="M0.0898438 0H37.2098C50.6928 0 60.4629 2.304 66.5219 6.912C72.5808 11.605 75.6098 19.243 75.6098 29.824C75.6098 42.197 71.5568 50.603 63.4498 55.04L41.0499 28.288V55.552H37.2098V17.664L64.2178 50.048C69.2529 46.293 71.7698 39.552 71.7698 29.824C71.7698 25.557 71.3008 21.973 70.3618 19.072C69.5089 16.171 67.8448 13.483 65.3698 11.008C62.9808 8.619 59.4389 6.827 54.7458 5.632C50.1378 4.437 44.2928 3.84 37.2098 3.84H0.0898438V0Z" fill="#B4637A"></path>
</svg><style>@media (prefers-color-scheme: light) { :root { filter: none; } }
</style></svg>